HIERARCHY
ROOT Hips
{
	OFFSET 0.000000 0.000000 0.000000
	CHANNELS 6 Xposition Yposition Zposition Zrotation Yrotation Xrotation 
	JOINT LHipJoint
	{
		OFFSET 0.000000 0.000000 0.000000
		CHANNELS 3 Zrotation Yrotation Xrotation
		JOINT LeftUpLeg
		{
			OFFSET 1.363060 -1.794630 0.839290
			CHANNELS 3 Zrotation Yrotation Xrotation
			JOINT LeftLeg
			{
				OFFSET 2.448110 -6.726130 0.000000
				CHANNELS 3 Zrotation Yrotation Xrotation
				JOINT LeftFoot
				{
					OFFSET 2.562200 -7.039590 0.000000
					CHANNELS 3 Zrotation Yrotation Xrotation
					JOINT LeftToeBase
					{
						OFFSET 0.157640 -0.433110 2.322550
						CHANNELS 3 Zrotation Yrotation Xrotation
						End Site
						{
							OFFSET 0.000000 0.000000 0.000000
						}
					}
				}
			}
		}
	}
	JOINT RHipJoint
	{
		OFFSET 0.000000 0.000000 0.000000
		CHANNELS 3 Zrotation Yrotation Xrotation
		JOINT RightUpLeg
		{
			OFFSET -1.305520 -1.794630 0.839290
			CHANNELS 3 Zrotation Yrotation Xrotation
			JOINT RightLeg
			{
				OFFSET -2.542530 -6.985550 0.000000
				CHANNELS 3 Zrotation Yrotation Xrotation
				JOINT RightFoot
				{
					OFFSET -2.568260 -7.056230 0.000000
					CHANNELS 3 Zrotation Yrotation Xrotation
					JOINT RightToeBase
					{
						OFFSET -0.164730 -0.452590 2.363150
						CHANNELS 3 Zrotation Yrotation Xrotation
						End Site
						{
							OFFSET 0.000000 0.000000 0.000000
						}
					}
				}
			}
		}
	}
}
MOTION
Frames: 34
Frame Time: 0.008333
-0.762590 17.016252 -0.745003 12.642994 81.006290 22.293953 -12.025963 5.341287 0.157508 -0.114491 12.907911 0.653691 -0.619744 1.856671 27.779543 0.639586 -6.969330 21.659630 -3.493000 0.000000 -83.294700 7.720218 -1.176131 4.441720 15.186633 5.635513 -26.291446 2.974859 1.547334 2.493304 -1.748762 -9.022218 -0.774540 -2.263000 -0.000001 -21.492100
-0.584760 17.026888 -0.685978 8.747279 80.414813 18.382039 -12.135931 5.313652 0.131629 0.615076 13.150848 -0.386936 -0.483872 1.964161 30.243896 0.795727 -7.174366 23.294718 -3.860600 0.000000 -79.804000 7.605612 -1.233939 4.420020 15.978187 6.015696 -25.887421 3.082251 1.431065 3.583114 -1.638119 -8.374420 -1.152732 -2.061100 0.000000 -19.040900
-0.411628 17.036336 -0.625572 5.585350 79.815316 15.201289 -12.210384 5.253757 0.092025 1.235518 13.347213 -1.482184 -0.363888 2.065560 32.767305 0.944088 -7.034581 24.597996 -4.023600 0.000000 -75.427300 7.513305 -1.285918 4.387833 16.725444 6.317496 -25.441510 3.182878 1.323787 4.585215 -1.528003 -7.687108 -1.632537 -1.842000 -0.000000 -16.253500
-0.243021 17.044794 -0.563340 3.190179 79.222286 12.787571 -12.258870 5.167400 0.041304 1.721041 13.491647 -2.634522 -0.254951 2.165159 35.322442 1.081444 -6.466671 25.501765 -3.913899 0.000000 -70.492300 7.437536 -1.333539 4.347072 17.400697 6.539131 -24.953661 3.273622 1.230180 5.473580 -1.424112 -6.995771 -2.192159 -1.620099 -0.000000 -13.241600
-0.078560 17.052449 -0.499458 1.416591 78.641208 10.999178 -12.290335 5.060138 -0.019632 2.082038 13.591993 -3.847127 -0.152515 2.267179 37.882410 1.208851 -5.439342 25.971506 -3.505299 0.000000 -65.411900 7.371193 -1.375668 4.303849 18.002173 6.707722 -24.408606 3.354229 1.157364 6.206960 -1.334163 -6.351010 -2.803663 -1.411000 -0.000000 -10.051300
0.082200 17.059730 -0.433925 0.177922 78.076918 9.752650 -12.309585 4.936653 -0.086667 2.318210 13.642727 -5.117463 -0.052423 2.373096 40.414195 1.330163 -3.952995 26.000901 -2.806500 0.000000 -60.541800 7.312059 -1.411637 4.261281 18.522871 6.835239 -23.805981 3.423903 1.107983 6.768422 -1.261249 -5.779331 -3.438346 -1.222700 0.000000 -6.842900
0.239838 17.067012 -0.366843 -0.634715 77.531522 8.941852 -12.319537 4.799948 -0.155351 2.438732 13.637195 -6.439698 0.047783 2.482466 42.884297 1.450614 -2.051713 25.603842 -1.865300 -0.000001 -56.143100 7.258703 -1.440913 4.222591 18.963405 6.937289 -23.146869 3.482711 1.083024 7.149734 -1.206791 -5.298004 -4.070443 -1.059200 -0.000000 -3.753500
0.394853 17.074746 -0.298244 -1.096544 77.005648 8.492701 -12.321665 4.652387 -0.221267 2.451660 13.567837 -7.804046 0.148554 2.593469 45.260420 1.574902 0.185473 24.802466 -0.757900 0.000000 -52.268700 7.211480 -1.463551 4.189038 19.322482 7.023075 -22.439480 3.530488 1.080429 7.360043 -1.168948 -4.906980 -4.675934 -0.920401 -0.000000 -0.963000
0.547748 17.083245 -0.228387 -1.310304 76.497638 8.303500 -12.316942 4.495044 -0.280722 2.376979 13.431093 -9.198922 0.248623 2.703351 47.508753 1.707112 2.651861 23.638989 0.420500 -0.000000 -48.964700 7.169354 -1.479500 4.163388 19.607780 7.111814 -21.687887 3.568192 1.098327 7.409685 -1.146459 -4.605237 -5.242615 179.195800 0.000000 -1.495401
0.698914 17.092776 -0.157389 -1.327178 76.004798 8.322200 -12.305670 4.329499 -0.330811 2.228093 13.223843 -10.609178 0.345419 2.809097 49.597084 1.848691 5.227071 22.159892 1.572299 -0.000000 -46.104399 7.133039 -1.489151 4.145037 19.821883 7.211583 -20.902956 3.596189 1.132076 7.325763 -1.135065 -4.375621 -5.759980 179.293000 -0.000000 -3.543800
0.848659 17.103450 -0.085512 -1.214420 75.522028 8.481684 -12.288128 4.156975 -0.369190 2.025114 12.947205 -12.021223 0.435847 2.907664 51.496489 1.998624 7.785254 20.426781 2.607600 -0.000000 -43.570000 7.101842 -1.492995 4.135720 19.973075 7.339861 -20.091353 3.615502 1.178000 7.129967 -1.131884 -4.206416 -6.222161 179.374100 0.000000 -5.202100
0.997198 17.115218 -0.012929 -1.005627 75.043001 8.747089 -12.264157 3.979181 -0.394270 1.781538 12.602025 -13.418372 0.516752 2.995904 53.177902 2.153554 10.212669 18.519374 3.459600 0.000000 -41.317500 7.076385 -1.491496 4.133281 20.066629 7.501791 -19.261621 3.627013 1.231093 6.853155 -1.132224 -4.075071 -6.627417 179.442600 -0.000000 -6.483500
1.144623 17.127923 0.060148 -0.739819 74.561083 9.079490 -12.233700 3.798006 -0.405149 1.513363 12.194845 -14.790808 0.585402 3.071732 54.625597 2.306064 12.405481 16.500206 4.083001 -0.000000 -39.138900 7.056184 -1.485730 4.138658 20.111111 7.708300 -18.419868 3.631882 1.287833 6.516422 -1.133203 -3.968304 -6.973545 179.500300 0.000000 -7.433500
1.291040 17.141288 0.133515 -0.436446 74.068142 9.458553 -12.196299 3.615285 -0.401236 1.229331 11.729810 -16.126299 0.639797 3.132753 55.822519 2.448827 14.291627 14.457047 4.468601 -0.000000 -37.109600 7.041793 -1.476493 4.148997 20.113701 7.957032 -17.571693 3.631466 1.344545 6.142926 -1.130850 -3.865782 -7.262124 179.549400 -0.000000 -8.101400
1.436467 17.154910 0.206934 -0.115031 73.557299 9.865141 -12.151600 3.432880 -0.382365 0.937676 11.214651 -17.419301 0.678624 3.177666 56.764153 2.573065 15.820837 12.450594 4.628000 -0.000000 -35.171900 7.033278 -1.465087 4.163077 20.082874 8.244315 -16.720419 3.627317 1.399222 5.745895 -1.122546 -3.753577 -7.495375 179.591401 -0.000000 -8.543500
1.580995 17.168353 0.280242 0.210652 73.022287 10.285950 -12.099178 3.252289 -0.348586 0.643055 10.656085 -18.667014 0.701266 3.205663 57.451189 2.671500 16.971472 10.533158 4.593400 -0.000000 -33.333999 7.030973 -1.452623 4.178670 20.026493 8.559533 -15.868469 3.621085 1.450909 5.333011 -1.106044 -3.618719 -7.677375 179.627600 -0.000000 -8.819800
1.724684 17.181191 0.353295 0.531844 72.459029 10.712754 -12.038786 3.074826 -0.299226 0.347141 10.060516 -19.872096 0.707627 3.216507 57.893152 2.738682 17.744703 8.727565 4.403900 0.000000 -31.543801 7.035102 -1.440784 4.195071 19.951480 8.889275 -15.017429 3.614253 1.499964 4.904892 -1.080237 -3.452804 -7.814289 179.659300 0.000000 -8.989500
1.867718 17.192994 0.425948 0.839444 71.864272 11.138816 -11.970224 2.900910 -0.234043 0.051236 9.431263 -21.038725 0.698163 3.210423 58.100859 2.773247 18.168807 7.057215 4.106700 0.000000 -29.873200 7.045883 -1.430223 4.210057 19.864592 9.216762 -14.168370 3.608334 1.547764 4.457444 -1.044463 -3.248891 -7.914031 179.687800 -0.000001 -9.114200
2.010323 17.203421 0.498131 1.128093 71.238293 11.561172 -11.893544 2.730594 -0.151658 -0.244348 8.769323 -22.175604 0.673671 3.188025 58.091326 2.776548 18.287474 5.517444 3.742000 -0.000000 -28.298501 7.063448 -1.421958 4.223143 19.770080 9.525718 -13.323072 3.604368 1.596384 3.983223 -0.999044 -3.004229 -7.985805 179.714200 0.000000 -9.248799
2.152758 17.212230 0.569841 1.394291 70.583276 11.979065 -11.808898 2.563230 -0.050343 -0.539284 8.072687 -23.293414 0.635358 3.150157 57.883466 2.753259 18.159657 4.095847 3.344200 0.000000 -26.817000 7.087846 -1.416607 4.234018 19.670719 9.800917 -12.484868 3.603059 1.648102 3.474474 -0.944753 -2.717973 -8.039425 179.739700 0.000000 -9.439200
2.295286 17.219291 0.641099 1.636849 69.903560 12.394573 -11.716522 2.397676 0.071984 -0.831937 7.336921 -24.403927 0.584774 3.097825 57.497073 2.710590 17.853629 2.773996 2.940300 0.000000 -25.421800 7.119148 -1.414476 4.242627 19.566738 10.029464 -11.659107 3.604650 1.704884 2.926120 -0.882562 -2.390292 -8.084460 179.765200 0.000000 -9.716900
2.438182 17.224552 0.711956 1.856304 69.204934 12.810067 -11.616667 2.232527 0.217433 -1.119014 6.556249 -25.516769 0.523900 3.031981 56.950727 2.657363 17.441028 1.534036 2.550200 0.000000 -24.125699 7.157250 -1.415771 4.249148 19.457813 10.202491 -10.851554 3.609028 1.767865 2.337622 -0.813461 -2.022004 -8.128827 179.791299 0.000000 -10.096199
2.581680 17.228101 0.782465 2.053552 68.494608 13.228050 -11.509536 2.066272 0.387642 -1.395617 5.725331 -26.640272 0.455010 2.953620 56.261044 2.602944 16.990637 0.360903 2.187000 0.000000 -22.937500 7.202012 -1.420413 4.253659 19.341930 10.315086 -10.070017 3.615773 1.837185 1.714285 -0.738305 -1.613921 -8.178439 179.818099 0.000000 -10.572000
2.725964 17.230020 0.852705 2.228575 67.779005 13.649350 -11.395217 1.897535 0.582730 -1.654343 4.842028 -27.779442 0.380418 2.863929 55.441237 2.556103 16.561886 -0.756535 1.857399 -0.000000 -21.854600 7.252934 -1.427854 4.255861 19.217817 10.368555 -9.322158 3.624313 1.911814 1.067472 -0.657903 -1.167791 -8.236085 179.845300 0.000000 -11.122400
2.871026 17.230499 0.922743 2.388507 67.065564 14.078389 -11.273695 1.725838 0.803559 -1.889966 3.904769 -28.934991 0.302951 2.763340 54.499516 2.524638 16.204262 -1.816245 1.566000 0.000000 -20.911300 7.309930 -1.438317 4.256125 19.081883 10.365721 -8.616622 3.633739 1.989326 0.416261 -0.572800 -0.683945 -8.303998 179.872600 -0.000000 -11.711600
3.016909 17.229649 0.992468 2.523365 66.358826 14.503059 -11.145399 1.550808 1.046523 -2.090064 2.923612 -30.102677 0.224840 2.653295 53.441089 2.513467 15.945620 -2.815400 1.312000 -0.000000 -20.098300 7.370981 -1.450832 4.253866 18.938252 10.320461 -7.955236 3.643715 2.067091 -0.221459 -0.484511 -0.170533 -8.379207 179.898700 0.000000 -12.300100
3.163483 17.227602 1.061814 2.630080 65.662820 14.916007 -11.010783 1.373255 1.307930 -2.246940 1.912262 -31.274762 0.148198 2.534591 52.265698 2.525245 15.799022 -3.741282 1.094700 0.000000 -19.417700 7.434479 -1.465077 4.248791 18.789291 10.246276 -7.339547 3.653744 2.141734 -0.823911 -0.394407 0.364884 -8.458864 179.922800 0.000000 -12.846599
3.310564 17.224478 1.130747 2.709453 64.980658 15.311300 -10.870497 1.194993 1.583287 -2.357064 0.889296 -32.440148 0.074643 2.407699 50.969700 2.559881 15.761423 -4.577022 0.913500 -0.000000 -18.855600 7.498947 -1.481144 4.240549 18.637862 10.155466 -6.769194 3.663425 2.209763 -1.369072 -0.303900 0.914741 -8.541653 179.944200 -0.000000 -13.316800
3.457943 17.220258 1.198969 2.745496 64.312894 15.666379 -10.726357 1.018011 1.864233 -2.414123 -0.113781 -33.584010 0.004817 2.273799 49.548153 2.613889 15.811229 -5.305629 0.767700 0.000000 -18.398700 7.560955 -1.498556 4.227983 18.495160 10.065027 -6.233972 3.673154 2.268594 -1.842890 -0.215230 1.463909 -8.622106 179.961900 -0.000000 -13.688300
3.605429 17.214945 1.266408 2.737268 63.660478 15.971980 -10.580165 0.845379 2.143957 -2.423638 -1.067245 -34.691246 -0.061370 2.133195 47.994295 2.681803 15.918909 -5.909716 0.658600 -0.000000 -18.020300 7.618789 -1.517882 4.210060 18.366867 9.981305 -5.726028 3.683062 2.316038 -2.232818 -0.129803 2.003748 -8.700067 179.976100 0.000001 -13.954500
3.752844 17.208461 1.332846 2.676182 63.023096 16.211259 -10.434732 0.680073 2.413884 -2.393132 -1.934830 -35.746323 -0.125123 1.986612 46.302464 2.755829 16.045234 -6.375030 0.588000 -0.000000 -17.710700 7.669803 -1.539511 4.185362 18.263305 9.909399 -5.231819 3.693801 2.351084 -2.534742 -0.049197 2.522933 -8.773595 179.986500 -0.000000 -14.122300
3.900101 17.200687 1.398147 2.551375 62.400561 16.367775 -10.293779 0.524492 2.665736 -2.333823 -2.678775 -36.738807 -0.188345 1.834907 44.471206 2.827028 16.148067 -6.690554 0.557800 0.000000 -17.457300 7.710638 -1.564010 4.154261 18.195876 9.856164 -4.737309 3.706082 2.374183 -2.752709 0.024376 3.006126 -8.842432 179.993600 -0.000000 -14.209400
4.047290 17.191584 1.462453 2.374861 61.795292 16.445562 -10.159515 0.382034 2.894971 -2.270582 -3.278012 -37.653829 -0.254435 1.677784 42.493877 2.886736 16.189171 -6.856572 0.567400 -0.000000 -17.273300 7.742803 -1.592721 4.112191 18.164113 9.795236 -4.234276 3.720688 2.385675 -2.889642 0.092716 3.465704 -8.912796 179.998000 -0.000000 -14.266099
4.194361 17.181012 1.525634 2.142875 61.207937 16.431021 -10.035800 0.254561 3.094450 -2.223959 -3.702859 -38.478481 -0.327513 1.516156 40.372765 2.925774 16.130009 -6.877295 0.613801 0.000000 -17.175600 7.765026 -1.626206 4.055721 18.175499 9.710555 -3.704229 3.738876 2.387216 -2.958378 0.156225 3.904186 -8.987691 179.999900 -0.000000 -14.347700
